<svg width="149" height="237" viewBox="0 0 149 237" fill="none" xmlns="http://www.w3.org/2000/svg">
<rect width="149" height="237" fill="black"/>
<path d="M112.689 72C105.044 79.1642 101.646 92.597 99.9465 99.7612C98.2475 106.925 94 132 94 132C100.467 124.151 105.897 115.415 110.141 106.03C116.937 90.806 112.689 72 112.689 72Z" fill="white"/>
<path d="M124.52 150C132.118 138.345 135.495 115.034 127.053 98L84 202C84 202 117.016 161.512 124.52 150Z" fill="white"/>
<path d="M84 216C104.129 208.252 113.514 202.979 123.419 193.903C135.161 183.142 136 167 136 167L84 216Z" fill="white"/>
<path d="M74.5 20L16 28.9545L31.8786 62.0864H59.4571L74.5 217L89.5429 62.0864H117.121L133 28.9545L74.5 20Z" fill="white"/>
<path d="M49.0535 99.7612C47.3545 92.597 43.9565 79.1642 36.311 72C36.311 72 32.0635 90.806 38.8595 106.03C43.1031 115.415 48.5326 124.151 55 132C55 132 50.7525 106.925 49.0535 99.7612Z" fill="white"/>
<path d="M24.4795 150C31.9843 161.512 65 202 65 202L21.947 98C13.5053 115.034 16.882 138.345 24.4795 150Z" fill="white"/>
<path d="M25.5806 193.903C35.4858 202.979 44.871 208.252 65 216L13 167C13 167 13.8387 183.142 25.5806 193.903Z" fill="white"/>
</svg>
