<svg width="119" height="180" viewBox="0 0 119 180" fill="none" xmlns="http://www.w3.org/2000/svg">
<g clip-path="url(#clip0_20_29)">
<path d="M96.1781 47.2738C88.8425 53.7944 85.5822 66.0204 83.9521 72.5409C82.3219 79.0615 78.2466 101.883 78.2466 101.883C84.4519 94.7395 89.6613 86.7883 93.7329 78.2464C100.253 64.3902 96.1781 47.2738 96.1781 47.2738Z" fill="white"/>
<path d="M107.589 118.185C114.925 107.589 118.185 86.3972 110.034 70.9109L68.4658 165.459C68.4658 165.459 100.343 128.65 107.589 118.185Z" fill="white"/>
<path d="M68.4658 178.206C88.0275 171.164 97.1481 166.372 106.774 158.123C118.185 148.342 119 133.671 119 133.671L68.4658 178.206Z" fill="white"/>
<path d="M59.5001 -0.00012207L2.44531 8.15056L17.9316 38.3081H44.8289L59.5001 179.315L74.1713 38.3081H101.069L116.555 8.15056L59.5001 -0.00012207Z" fill="white"/>
<path d="M59.5001 -0.00012207L2.44531 8.15056L17.9316 38.3081H44.8289L59.5001 179.315L74.1713 38.3081H101.069L116.555 8.15056L59.5001 -0.00012207Z" fill="white"/>
<path d="M35.0481 72.5409C33.4179 66.0204 30.1576 53.7944 22.822 47.2738C22.822 47.2738 18.7467 64.3902 25.2672 78.2464C29.3388 86.7883 34.5482 94.7395 40.7535 101.883C40.7535 101.883 36.6782 79.0615 35.0481 72.5409Z" fill="white"/>
<path d="M11.4109 118.185C18.6568 128.65 50.5341 165.459 50.5341 165.459L8.96565 70.9109C0.814962 86.3972 4.07524 107.589 11.4109 118.185Z" fill="white"/>
<path d="M12.226 158.123C21.852 166.372 30.9726 171.164 50.5342 178.206L0 133.671C0 133.671 0.815069 148.342 12.226 158.123Z" fill="white"/>
</g>
<defs>
<clipPath id="clip0_20_29">
<rect width="119" height="179.315" fill="white"/>
</clipPath>
</defs>
</svg>
